<svg width="3840" height="7304" viewBox="0 0 1920 7304" fill="none" xmlns="http://www.w3.org/2000/svg">
<g filter="url(#filter0_f_2004_215)">
<circle cx="1600" cy="3898" r="178" fill="#2A3E84"/>
</g>
<g filter="url(#filter1_f_2004_215)">
<circle cx="445" cy="4599" r="178" fill="#2A3E84"/>
</g>
<g filter="url(#filter2_f_2004_215)">
<circle cx="1620" cy="4928" r="178" fill="#2A3E84"/>
</g>
<g filter="url(#filter3_f_2004_215)">
<circle cx="1620" cy="6334" r="178" fill="#2A3E84"/>
</g>
<g filter="url(#filter4_f_2004_215)">
<circle cx="446" cy="6021" r="204" fill="#2A3E84"/>
</g>
<g filter="url(#filter5_f_2004_215)">
<circle cx="1603" cy="566" r="178" fill="#2A3E84"/>
</g>
<g filter="url(#filter6_f_2004_215)">
<circle cx="455" cy="2027" r="178" fill="#2A3E84"/>
</g>
<g filter="url(#filter7_f_2004_215)">
<circle cx="455" cy="2856" r="178" fill="#2A3E84"/>
</g>
<path d="M976.383 738.29L975.59 744.898L970.474 748.017L976.344 749.217L979.331 755.165L980.124 748.557L985.24 745.438L979.369 744.237L976.383 738.29Z" fill="#15BFFD"/>
<path d="M1241.38 751.29L1240.59 757.898L1235.47 761.017L1241.34 762.217L1244.33 768.165L1245.12 761.557L1250.24 758.438L1244.37 757.237L1241.38 751.29Z" fill="#15BFFD"/>
<path d="M346.635 1137.77L345.6 1146.39L338.924 1150.46L346.585 1152.03L350.482 1159.79L351.517 1151.17L358.193 1147.09L350.532 1145.53L346.635 1137.77Z" fill="white"/>
<path d="M579.548 791.668L578.522 800.214L571.906 804.249L579.498 805.801L583.361 813.493L584.386 804.947L591.002 800.912L583.41 799.36L579.548 791.668Z" fill="#15BFFD"/>
<g filter="url(#filter8_dddddd_2004_215)">
<path d="M1659.51 747.059L1657.63 762.732L1645.5 770.13L1659.42 772.976L1666.5 787.082L1668.38 771.41L1680.52 764.011L1666.59 761.165L1659.51 747.059Z" fill="#15BFFD"/>
</g>
<path d="M1581.02 1526.59L1579.05 1543.01L1566.33 1550.77L1580.92 1553.75L1588.35 1568.53L1590.32 1552.11L1603.03 1544.36L1588.44 1541.37L1581.02 1526.59Z" fill="#15BFFD"/>
<path d="M1344.71 1448.4L1343.93 1454.93L1338.87 1458.02L1344.67 1459.2L1347.63 1465.08L1348.41 1458.55L1353.47 1455.47L1347.67 1454.28L1344.71 1448.4Z" fill="#15BFFD"/>
<path d="M1613.59 2695.85L1612.45 2705.33L1605.12 2709.81L1613.54 2711.53L1617.82 2720.06L1618.96 2710.58L1626.3 2706.1L1617.88 2704.38L1613.59 2695.85Z" fill="#15BFFD"/>
<path d="M1202.97 2855.96L1202.24 2862L1197.56 2864.85L1202.93 2865.95L1205.66 2871.39L1206.39 2865.35L1211.06 2862.49L1205.7 2861.4L1202.97 2855.96Z" fill="#15BFFD"/>
<path d="M447.079 4323.55L445.759 4334.55L437.242 4339.74L447.016 4341.74L451.988 4351.64L453.308 4340.64L461.825 4335.45L452.052 4333.45L447.079 4323.55Z" fill="#15BFFD"/>
<path d="M1662.29 4879.15L1660.97 4890.15L1652.45 4895.34L1662.23 4897.34L1667.2 4907.24L1668.52 4896.24L1677.04 4891.05L1667.26 4889.05L1662.29 4879.15Z" fill="#15BFFD"/>
<path d="M1196.15 4376.7L1198.4 4380.88L1196.69 4384.79L1200.6 4383.09L1204.78 4385.33L1202.54 4381.15L1204.24 4377.24L1200.33 4378.95L1196.15 4376.7Z" fill="#15BFFD"/>
<path d="M1283.97 6024.96L1282.45 6037.6L1272.67 6043.56L1283.89 6045.86L1289.6 6057.23L1291.12 6044.59L1300.91 6038.63L1289.68 6036.33L1283.97 6024.96Z" fill="#15BFFD"/>
<path d="M1093.28 6178.29L1092.63 6183.72L1088.43 6186.28L1093.25 6187.27L1095.7 6192.15L1096.35 6186.72L1100.55 6184.16L1095.73 6183.18L1093.28 6178.29Z" fill="#15BFFD"/>
<path d="M573.062 6275.06L572.411 6280.48L568.21 6283.05L573.031 6284.03L575.483 6288.92L576.134 6283.49L580.334 6280.93L575.514 6279.94L573.062 6275.06Z" fill="#15BFFD"/>
<path d="M1505.75 3087.18L1505.03 3093.22L1500.35 3096.07L1505.72 3097.17L1508.45 3102.61L1509.17 3096.57L1513.85 3093.72L1508.48 3092.62L1505.75 3087.18Z" fill="#15BFFD"/>
<path d="M1419.26 3036.14L1417.94 3047.11L1409.45 3052.29L1419.2 3054.29L1424.15 3064.16L1425.47 3053.19L1433.97 3048.01L1424.22 3046.02L1419.26 3036.14Z" fill="#15BFFD"/>
<path d="M391.751 2679.18L391.026 2685.22L386.348 2688.07L391.716 2689.17L394.447 2694.61L395.172 2688.57L399.85 2685.72L394.482 2684.62L391.751 2679.18Z" fill="#15BFFD"/>
<path d="M472.751 5848.18L472.026 5854.22L467.348 5857.07L472.716 5858.17L475.447 5863.61L476.172 5857.57L480.85 5854.72L475.482 5853.62L472.751 5848.18Z" fill="#15BFFD"/>
<path d="M584.581 2260.08L583.301 2270.75L575.041 2275.79L584.519 2277.73L589.342 2287.33L590.622 2276.66L598.882 2271.62L589.404 2269.69L584.581 2260.08Z" fill="#15BFFD"/>
<path d="M1212.55 1300.67L1211.94 1305.74L1208.01 1308.13L1212.52 1309.05L1214.81 1313.62L1215.42 1308.55L1219.35 1306.15L1214.84 1305.23L1212.55 1300.67Z" fill="#15BFFD"/>
<g filter="url(#filter9_f_2004_215)">
<circle cx="472" cy="677" r="178" fill="#2A3E84"/>
</g>
<g filter="url(#filter10_f_2004_215)">
<circle cx="1668" cy="1455" r="199" fill="#192065"/>
</g>
<defs>
<filter id="filter0_f_2004_215" x="1072" y="3370" width="1056" height="1056" filterUnits="userSpaceOnUse" color-interpolation-filters="sRGB">
<feFlood flood-opacity="0" result="BackgroundImageFix"/>
<feBlend mode="normal" in="SourceGraphic" in2="BackgroundImageFix" result="shape"/>
<feGaussianBlur stdDeviation="175" result="effect1_foregroundBlur_2004_215"/>
</filter>
<filter id="filter1_f_2004_215" x="-83" y="4071" width="1056" height="1056" filterUnits="userSpaceOnUse" color-interpolation-filters="sRGB">
<feFlood flood-opacity="0" result="BackgroundImageFix"/>
<feBlend mode="normal" in="SourceGraphic" in2="BackgroundImageFix" result="shape"/>
<feGaussianBlur stdDeviation="175" result="effect1_foregroundBlur_2004_215"/>
</filter>
<filter id="filter2_f_2004_215" x="1092" y="4400" width="1056" height="1056" filterUnits="userSpaceOnUse" color-interpolation-filters="sRGB">
<feFlood flood-opacity="0" result="BackgroundImageFix"/>
<feBlend mode="normal" in="SourceGraphic" in2="BackgroundImageFix" result="shape"/>
<feGaussianBlur stdDeviation="175" result="effect1_foregroundBlur_2004_215"/>
</filter>
<filter id="filter3_f_2004_215" x="1092" y="5806" width="1056" height="1056" filterUnits="userSpaceOnUse" color-interpolation-filters="sRGB">
<feFlood flood-opacity="0" result="BackgroundImageFix"/>
<feBlend mode="normal" in="SourceGraphic" in2="BackgroundImageFix" result="shape"/>
<feGaussianBlur stdDeviation="175" result="effect1_foregroundBlur_2004_215"/>
</filter>
<filter id="filter4_f_2004_215" x="-108" y="5467" width="1108" height="1108" filterUnits="userSpaceOnUse" color-interpolation-filters="sRGB">
<feFlood flood-opacity="0" result="BackgroundImageFix"/>
<feBlend mode="normal" in="SourceGraphic" in2="BackgroundImageFix" result="shape"/>
<feGaussianBlur stdDeviation="175" result="effect1_foregroundBlur_2004_215"/>
</filter>
<filter id="filter5_f_2004_215" x="1075" y="38" width="1056" height="1056" filterUnits="userSpaceOnUse" color-interpolation-filters="sRGB">
<feFlood flood-opacity="0" result="BackgroundImageFix"/>
<feBlend mode="normal" in="SourceGraphic" in2="BackgroundImageFix" result="shape"/>
<feGaussianBlur stdDeviation="175" result="effect1_foregroundBlur_2004_215"/>
</filter>
<filter id="filter6_f_2004_215" x="-73" y="1499" width="1056" height="1056" filterUnits="userSpaceOnUse" color-interpolation-filters="sRGB">
<feFlood flood-opacity="0" result="BackgroundImageFix"/>
<feBlend mode="normal" in="SourceGraphic" in2="BackgroundImageFix" result="shape"/>
<feGaussianBlur stdDeviation="175" result="effect1_foregroundBlur_2004_215"/>
</filter>
<filter id="filter7_f_2004_215" x="-73" y="2328" width="1056" height="1056" filterUnits="userSpaceOnUse" color-interpolation-filters="sRGB">
<feFlood flood-opacity="0" result="BackgroundImageFix"/>
<feBlend mode="normal" in="SourceGraphic" in2="BackgroundImageFix" result="shape"/>
<feGaussianBlur stdDeviation="175" result="effect1_foregroundBlur_2004_215"/>
</filter>
<filter id="filter8_dddddd_2004_215" x="1491.92" y="593.481" width="342.177" height="347.18" filterUnits="userSpaceOnUse" color-interpolation-filters="sRGB">
<feFlood flood-opacity="0" result="BackgroundImageFix"/>
<feColorMatrix in="SourceAlpha" type="matrix" values="0 0 0 0 0 0 0 0 0 0 0 0 0 0 0 0 0 0 127 0" result="hardAlpha"/>
<feOffset/>
<feGaussianBlur stdDeviation="1.82832"/>
<feColorMatrix type="matrix" values="0 0 0 0 0.14902 0 0 0 0 0.0901961 0 0 0 0 0.992157 0 0 0 1 0"/>
<feBlend mode="normal" in2="BackgroundImageFix" result="effect1_dropShadow_2004_215"/>
<feColorMatrix in="SourceAlpha" type="matrix" values="0 0 0 0 0 0 0 0 0 0 0 0 0 0 0 0 0 0 127 0" result="hardAlpha"/>
<feOffset/>
<feGaussianBlur stdDeviation="3.65663"/>
<feColorMatrix type="matrix" values="0 0 0 0 0.14902 0 0 0 0 0.0901961 0 0 0 0 0.992157 0 0 0 1 0"/>
<feBlend mode="normal" in2="effect1_dropShadow_2004_215" result="effect2_dropShadow_2004_215"/>
<feColorMatrix in="SourceAlpha" type="matrix" values="0 0 0 0 0 0 0 0 0 0 0 0 0 0 0 0 0 0 127 0" result="hardAlpha"/>
<feOffset/>
<feGaussianBlur stdDeviation="12.7982"/>
<feColorMatrix type="matrix" values="0 0 0 0 0.14902 0 0 0 0 0.0901961 0 0 0 0 0.992157 0 0 0 1 0"/>
<feBlend mode="normal" in2="effect2_dropShadow_2004_215" result="effect3_dropShadow_2004_215"/>
<feColorMatrix in="SourceAlpha" type="matrix" values="0 0 0 0 0 0 0 0 0 0 0 0 0 0 0 0 0 0 127 0" result="hardAlpha"/>
<feOffset/>
<feGaussianBlur stdDeviation="25.5964"/>
<feColorMatrix type="matrix" values="0 0 0 0 0.14902 0 0 0 0 0.0901961 0 0 0 0 0.992157 0 0 0 1 0"/>
<feBlend mode="normal" in2="effect3_dropShadow_2004_215" result="effect4_dropShadow_2004_215"/>
<feColorMatrix in="SourceAlpha" type="matrix" values="0 0 0 0 0 0 0 0 0 0 0 0 0 0 0 0 0 0 127 0" result="hardAlpha"/>
<feOffset/>
<feGaussianBlur stdDeviation="43.8796"/>
<feColorMatrix type="matrix" values="0 0 0 0 0.14902 0 0 0 0 0.0901961 0 0 0 0 0.992157 0 0 0 1 0"/>
<feBlend mode="normal" in2="effect4_dropShadow_2004_215" result="effect5_dropShadow_2004_215"/>
<feColorMatrix in="SourceAlpha" type="matrix" values="0 0 0 0 0 0 0 0 0 0 0 0 0 0 0 0 0 0 127 0" result="hardAlpha"/>
<feOffset/>
<feGaussianBlur stdDeviation="76.7893"/>
<feColorMatrix type="matrix" values="0 0 0 0 0.14902 0 0 0 0 0.0901961 0 0 0 0 0.992157 0 0 0 1 0"/>
<feBlend mode="normal" in2="effect5_dropShadow_2004_215" result="effect6_dropShadow_2004_215"/>
<feBlend mode="normal" in="SourceGraphic" in2="effect6_dropShadow_2004_215" result="shape"/>
</filter>
<filter id="filter9_f_2004_215" x="-56" y="149" width="1056" height="1056" filterUnits="userSpaceOnUse" color-interpolation-filters="sRGB">
<feFlood flood-opacity="0" result="BackgroundImageFix"/>
<feBlend mode="normal" in="SourceGraphic" in2="BackgroundImageFix" result="shape"/>
<feGaussianBlur stdDeviation="175" result="effect1_foregroundBlur_2004_215"/>
</filter>
<filter id="filter10_f_2004_215" x="1119" y="906" width="1098" height="1098" filterUnits="userSpaceOnUse" color-interpolation-filters="sRGB">
<feFlood flood-opacity="0" result="BackgroundImageFix"/>
<feBlend mode="normal" in="SourceGraphic" in2="BackgroundImageFix" result="shape"/>
<feGaussianBlur stdDeviation="175" result="effect1_foregroundBlur_2004_215"/>
</filter>
</defs>
</svg>
