<svg width="427" height="487" viewBox="0 0 427 487" fill="none" xmlns="http://www.w3.org/2000/svg">
<mask id="mask0_2062_357" style="mask-type:alpha" maskUnits="userSpaceOnUse" x="0" y="0" width="427" height="487">
<rect width="427" height="487" fill="#D9D9D9"/>
</mask>
<g mask="url(#mask0_2062_357)">
<g filter="url(#filter0_dd_2062_357)">
<path d="M307.646 267.577L307.651 267.575C326.921 259.781 347.27 249.461 362.799 233.057C378.418 216.558 389 194.078 389 162.353C389 130.02 377.38 100.517 350.977 79.169C324.659 57.889 284.011 45 226.472 45C159.557 45 112.63 62.2539 82.403 89.7038C52.1506 117.177 39 154.527 39 193.919V206C39 209.866 42.134 213 46 213H123.855C127.721 213 130.855 209.866 130.855 206V186.772C130.855 168.331 135.997 155.17 149.104 146.381C162.536 137.376 184.821 132.596 220.091 132.596C253.663 132.596 272.705 136.487 283.295 142.48C288.496 145.424 291.594 148.842 293.435 152.541C295.296 156.281 295.985 160.539 295.985 165.331C295.985 174.634 292.989 181.114 286.818 186.708C280.436 192.494 270.595 197.392 256.668 203.052L256.658 203.056L216.083 219.719C216.077 219.722 216.071 219.724 216.066 219.726C197.954 226.926 181.103 235.751 168.772 248.488C156.339 261.331 148.639 278.011 148.639 300.529V317.375C148.639 321.241 151.773 324.375 155.639 324.375H234.654C238.52 324.375 241.654 321.241 241.654 317.375V314.228C241.654 306.969 242.52 301.93 245.533 297.637C248.593 293.277 254.188 289.235 264.735 284.843C264.74 284.84 264.746 284.838 264.751 284.836L307.646 267.577ZM248.616 449V359.919C248.616 356.053 245.482 352.919 241.616 352.919H149.838C145.972 352.919 142.838 356.053 142.838 359.919V449C142.838 452.866 145.972 456 149.838 456H241.616C245.482 456 248.616 452.866 248.616 449Z" stroke="url(#paint0_linear_2062_357)" stroke-opacity="0.7" stroke-width="6"/>
</g>
</g>
<defs>
<filter id="filter0_dd_2062_357" x="-10.8" y="-4.8" width="449.6" height="510.6" filterUnits="userSpaceOnUse" color-interpolation-filters="sRGB">
<feFlood flood-opacity="0" result="BackgroundImageFix"/>
<feColorMatrix in="SourceAlpha" type="matrix" values="0 0 0 0 0 0 0 0 0 0 0 0 0 0 0 0 0 0 127 0" result="hardAlpha"/>
<feOffset/>
<feGaussianBlur stdDeviation="11.7"/>
<feColorMatrix type="matrix" values="0 0 0 0 0.419608 0 0 0 0 0.333333 0 0 0 0 0.847059 0 0 0 1 0"/>
<feBlend mode="normal" in2="BackgroundImageFix" result="effect1_dropShadow_2062_357"/>
<feColorMatrix in="SourceAlpha" type="matrix" values="0 0 0 0 0 0 0 0 0 0 0 0 0 0 0 0 0 0 127 0" result="hardAlpha"/>
<feOffset/>
<feGaussianBlur stdDeviation="23.4"/>
<feColorMatrix type="matrix" values="0 0 0 0 0.419608 0 0 0 0 0.333333 0 0 0 0 0.847059 0 0 0 1 0"/>
<feBlend mode="normal" in2="effect1_dropShadow_2062_357" result="effect2_dropShadow_2062_357"/>
<feBlend mode="normal" in="SourceGraphic" in2="effect2_dropShadow_2062_357" result="shape"/>
</filter>
<linearGradient id="paint0_linear_2062_357" x1="79.84" y1="86.1235" x2="329.888" y2="487.92" gradientUnits="userSpaceOnUse">
<stop stop-color="#15BFFD"/>
<stop offset="1" stop-color="#9C37FD"/>
</linearGradient>
</defs>
</svg>
